<?xml version="1.0" encoding="utf-8"?>
<!-- Generator: Adobe Illustrator 17.0.0, SVG Export Plug-In . SVG Version: 6.00 Build 0)  -->
<!DOCTYPE svg PUBLIC "-//W3C//DTD SVG 1.1//EN" "http://www.w3.org/Graphics/SVG/1.1/DTD/svg11.dtd">
<svg version="1.1" id="Shape_1_1_" xmlns="http://www.w3.org/2000/svg" xmlns:xlink="http://www.w3.org/1999/xlink" x="0px" y="0px"
	 width="3000px" height="3000px" viewBox="0 0 3000 3000" enable-background="new 0 0 3000 3000" xml:space="preserve">
<g id="Shape_1">
	<g>
		<path fill-rule="evenodd" clip-rule="evenodd" d="M2357.405,831.263c-21.932-85.567-46.914-171.119-87.275-239.982
			c-16.255-25.236-32.516-50.48-48.771-75.716c29.555,11.173,39.2,23.387,59.039,42.35c0,0.855,0,1.711,0,2.567
			c0.428,0,0.856,0,1.283,0c-17.053-84.615-112.263-134.996-219.469-133.466c9.205-66.233-37.178-84.469-82.141-101.383
			c-21.672-8.153-44.89-19.228-70.59-25.667c-37.757-9.459-79.508-8.939-120.644-15.4c-51.761-0.856-103.537-1.711-155.297-2.567
			c-26.95,2.139-53.907,4.278-80.857,6.417c-47.449,8.469-94.866,13.939-138.612,26.95c-85.537,25.44-163.62,56.627-228.454,102.666
			c-24.199,17.184-43.121,42.259-66.739,59.033c-62.147,44.137-137.789,89.999-137.329,195.066
			c7.867-17.048,8.356-27.307,24.386-35.933c-8.369,20.24-21.151,42.38-15.401,74.433c4.278,16.682,8.557,33.368,12.835,50.05
			c-5.133,10.266-10.268,20.534-15.401,30.8c-10.694,30.797-21.392,61.603-32.086,92.399
			c-16.255,75.281-32.516,150.584-48.771,225.865c-8.776,30.367-44.782,48.508-37.22,92.399
			c5.951,34.539,16.798,68.494,29.519,97.533c8.848,20.198,39.973,59.765,43.637,75.716c0,14.115,0,28.234,0,42.35
			c1.711,9.41,3.423,18.823,5.134,28.233c-20.105,69.72-40.217,139.462-60.322,209.182c-7.389,37.126-7.705,78.159-7.701,120.632
			c0.428,16.254,0.856,32.513,1.284,48.767c-5.133,10.266-10.268,20.534-15.401,30.8c-4.706,19.676-9.412,39.357-14.118,59.033
			c-9.122,47.518-11.921,145.816-3.85,197.632c6.969,44.745-4.829,95.677,2.567,138.599c5.561,39.779,11.124,79.57,16.685,119.349
			c-0.428,0-0.856,0-1.284,0c-3.422-14.543-6.845-29.09-10.268-43.633c-0.428,0-0.856,0-1.283,0
			c-8.605,66.795,16.286,125.331,37.22,169.399c-8.128-12.832-16.258-25.668-24.385-38.5c-0.856-0.428-1.711-0.856-2.567-1.283
			c12.084,86.948,85.371,148.341,177.116,153.999c-16.255-0.428-32.516-0.856-48.771-1.283
			c15.705,11.403,41.775,12.621,62.889,17.967c68.582,17.364,156.367,6.621,207.919-19.25c2.951-1.481,6.296-3.652,9.887-6.155
			c-0.302-0.086-0.608-0.162-0.903-0.262c0.426,0,0.852,0,1.278,0c9.347-6.544,20.365-15.31,30.808-20.533
			c-9.839,6.844-19.68,13.689-29.519,20.533c-0.43,0-0.859,0-1.289,0c-0.125,0.088-0.25,0.175-0.375,0.262
			c16.81,4.776,43.619-12.177,55.569-18.229c50.639-25.643,89.23-59.292,133.479-89.833c-12.405,15.826-24.815,31.657-37.22,47.483
			c-1.711,1.711-3.423,3.423-5.134,5.134c73.623-14.424,139.008-112.345,192.517-152.716c-6.943,21.633-20.091,34.171-32.086,50.05
			c53.611-14.682,165.184-119.925,186.1-166.833c0.856-0.428,1.711-0.856,2.567-1.283c-11.804,23.586-29.892,43.694-39.787,66.733
			c20.533-21.814,41.072-43.635,61.606-65.45c48.083-59.658,102.339-115.323,148.88-177.099
			c12.765-16.944,65.437-100.183,80.857-103.949c-11.963-130.001,3.745-272.488,24.385-387.565
			c10.653-59.396-4.139-133.62,11.551-184.799c11.482-37.453,30.593-71.201,51.338-100.099
			c9.411-11.121,18.825-22.246,28.236-33.366c1.711-1.283,3.423-2.567,5.134-3.85c-8.128,20.104-16.258,40.213-24.385,60.316
			c0.428,0,0.855,0,1.283,0c32.656-84.497,153.282-167.685,200.218-37.217c12.646,35.151,6.803,101.434-1.283,136.033
			c-13.107,56.08-44.549,132.341-74.44,174.532c-17.134,24.185-39.521,44.092-57.755,66.733
			c-27.948,34.702-82.449,55.909-133.479,30.8c-1.283,1.283-2.567,2.567-3.85,3.85c19.211,29.61,83.699,13.614,107.81,1.283
			c-3.422,20.959-6.845,41.924-10.268,62.883c-10.018,65.333,6.439,159.238,14.118,215.599
			c39.12-38.613,23.333-70.272,35.937-132.182c6.909-33.937,21.918-59.714,34.653-88.55
			c55.67-126.052,110.691-249.874,147.597-397.831C2418,1221.207,2394.917,977.62,2357.405,831.263z M867.322,2375.105
			c0-1.283,0-2.567,0-3.85c0.428,0,0.856,0,1.283,0C868.178,2372.538,867.75,2373.822,867.322,2375.105z M1294.71,2026.04
			c-24.965,34.852-12.73,99.816,7.701,128.333c-0.855,1.283-1.711,2.567-2.567,3.85c-12.873,18.271-157.717,4.063-165.565-10.267
			c-7.557-20.869,27.32-72.424,28.236-105.233c-39.246-15.74-88.035-20.177-143.746-19.25c3.587,45.51-1.424,87.235-32.086,102.666
			c-2.567,0-5.134,0-7.701,0c-26.11-39.822,8.346-194.747,35.937-205.332c-17.224-31.207-40.672-29.418-20.535-78.283
			c14.186-4.322,36.616,20.009,65.456,14.117c20.096-4.106,28.881-17.754,50.054-21.817
			c81.989-15.731,211.317,75.215,224.603,129.616C1343.4,2000.893,1306.729,2009.261,1294.71,2026.04z M1817.074,1732.158
			c-32.847,40.709-77.326,72.363-119.361,103.95c-85.003,63.874-178.116,127.24-278.508,174.532
			c25.185-160.035-22.505-203.881-146.313-242.549c-37.679-11.768-94.282-30.011-146.313-19.25
			c-28.939,5.985-36.919,29.12-64.172,34.65c-37.015,7.511-55.843-23.372-87.274-7.7c-38.513,19.203-46.684,64.347-68.023,101.383
			c0,0.855,0,1.711,0,2.567c-15.408-20.364-14.275-94.975-14.118-132.183c0.381-90.36,24.147-156.166,46.204-225.865
			c7.328-23.156,21.089-51.127,21.818-78.283c-2.139-11.977-4.278-23.957-6.417-35.933c0.428-12.404,0.856-24.812,1.283-37.217
			c-5.133-7.271-10.268-14.545-15.401-21.816c-10.266-19.676-20.536-39.357-30.803-59.033c-8.822-18.061-22.323-47.062-7.701-65.45
			c27.394-34.448,120.496,3.036,142.463,16.683c0.428,0,0.856,0,1.283,0c-8.338-26.244-33.795-71.646-60.322-79.566
			c-25.523-7.621-59.864-5.881-83.424-11.55c2.414-15.256,17.699-38.541,23.102-60.316c20.048-80.799,30.698-166.48,56.472-239.982
			c8.439-24.065,16.244-68.566,34.653-83.416c61.469-49.584,155.257-77.257,238.721-102.666
			c29.516-7.271,59.042-14.545,88.558-21.817c8.47-5.367,11.19-18.573,16.685-26.95c12.138-18.503,28.719-38.118,46.204-51.333
			c23.58-17.821,53.182-31.58,85.991-39.783c14.544-2.139,29.093-4.278,43.637-6.417c90.53-0.024,255.57,32.053,286.209,80.849
			c-28.688,24.491-48.449,46.349-50.054,97.533c0.428,0,0.856,0,1.283,0c7.481-27.695,28.437-46.376,52.621-57.75
			c-19.611,26.319-35.074,46.564-46.204,83.416c0,1.711,0,3.422,0,5.133c0.428,0,0.856,0,1.283,0
			c7.805-24.788,25.332-46.921,48.771-56.466c-38.5,91.751-76.275,203.749-91.125,319.548
			c120.59-0.739,136.161,79.509,152.73,183.516c1.283,30.797,2.567,61.603,3.85,92.399c1.711,70.576,3.423,141.173,5.134,211.749
			c0,41.49,0,82.993,0,124.483C1907.562,1638.673,1837.495,1706.849,1817.074,1732.158z M2289.382,1438.277
			c9.494-56.443,15.069-151.361-47.488-150.149c-7.272,2.994-14.547,5.989-21.819,8.983c-11.122,8.555-22.248,17.112-33.37,25.667
			c-2.139,2.566-4.278,5.134-6.417,7.7c51.405,3.296,96.515,106.427,101.393,159.132
			C2290.066,1478.538,2286.676,1454.364,2289.382,1438.277z M2161.038,1561.476c45.269-14.851,95.426-34.961,82.141-98.816
			c-3.26-15.671-5.873-29.299-14.118-39.783c-0.035,66.415-40.41,86.312-60.322,129.616
			C2166.172,1555.487,2163.604,1558.482,2161.038,1561.476z M1438.457,1080.229c-17.967,1.711-35.938,3.422-53.905,5.133
			c-61.794,11.094-202.096,17.849-214.336,71.866c-0.428-4.277-0.856-8.556-1.284-12.833c-5.178,5.196-6.803,13.586-6.417,24.383
			c-0.428,0-0.856,0-1.283,0c-0.428-5.56-0.856-11.123-1.284-16.683c-0.428,0-0.856,0-1.283,0
			c-4.352,21.689-5.343,44.735,10.267,56.466c31.228-8.127,62.464-16.256,93.692-24.383c45.849-12.739,89.27-24.91,142.463-30.8
			c71.134-7.877,180.823,39.661,229.737,61.6c0.428,0,0.856,0,1.283,0C1614.053,1157.703,1519.819,1079.048,1438.457,1080.229z"/>
	</g>
</g>
</svg>
